HIERARCHY
ROOT Hips
{
	OFFSET -3.958830 18.904000 13.208200
	CHANNELS 6 Xposition Yposition Zposition Zrotation Yrotation Xrotation 
	JOINT LHipJoint
	{
		OFFSET 0.000000 0.000000 0.000000
		CHANNELS 3 Zrotation Yrotation Xrotation
		JOINT LeftUpLeg
		{
			OFFSET 1.800000 -1.400000 0.085000
			CHANNELS 3 Zrotation Yrotation Xrotation
			JOINT LeftLeg
			{
				OFFSET 2.215000 -6.000000 0.000000
				CHANNELS 3 Zrotation Yrotation Xrotation
				JOINT LeftFoot
				{
					OFFSET 2.500000 -6.900000 0.000000
					CHANNELS 3 Zrotation Yrotation Xrotation
					JOINT LeftToeBase
					{
						OFFSET 0.200000 -0.500000 1.950000
						CHANNELS 3 Zrotation Yrotation Xrotation
						End Site
						{
							OFFSET 0.000000 0.000000 0.000000
						}
					}
				}
			}
		}
	}
	JOINT RHipJoint
	{
		OFFSET 0.000000 0.000000 0.000000
		CHANNELS 3 Zrotation Yrotation Xrotation
		JOINT RightUpLeg
		{
			OFFSET -1.800000 -1.400000 0.085000
			CHANNELS 3 Zrotation Yrotation Xrotation
			JOINT RightLeg
			{
				OFFSET -2.215000 -6.000000 0.000000
				CHANNELS 3 Zrotation Yrotation Xrotation
				JOINT RightFoot
				{
					OFFSET -2.500000 -6.900000 0.000000
					CHANNELS 3 Zrotation Yrotation Xrotation
					JOINT RightToeBase
					{
						OFFSET -0.200000 -0.500000 1.950000
						CHANNELS 3 Zrotation Yrotation Xrotation
						End Site
						{
							OFFSET 0.000000 0.000000 0.000000
						}
					}
				}
			}
		}
	}
	JOINT LowerBack
	{
		OFFSET 0.000000 0.000000 0.000000
		CHANNELS 3 Zrotation Yrotation Xrotation
		JOINT Spine
		{
			OFFSET -0.087000 1.940000 -0.288900
			CHANNELS 3 Zrotation Yrotation Xrotation
			JOINT Spine1
			{
				OFFSET 0.000000 1.950000 0.060000
				CHANNELS 3 Zrotation Yrotation Xrotation
				JOINT Neck
				{
					OFFSET 0.000000 0.000000 0.000000
					CHANNELS 3 Zrotation Yrotation Xrotation
					JOINT Neck1
					{
						OFFSET 0.000000 1.600000 0.340000
						CHANNELS 3 Zrotation Yrotation Xrotation
						JOINT Head
						{
							OFFSET 0.000000 1.667000 -0.240000
							CHANNELS 3 Zrotation Yrotation Xrotation
							End Site
							{
								OFFSET 0.000000 0.000000 0.000000
							}
						}
					}
				}
				JOINT LeftShoulder
				{
					OFFSET 0.000000 0.000000 0.000000
					CHANNELS 3 Zrotation Yrotation Xrotation
					JOINT LeftArm
					{
						OFFSET 2.700000 1.550000 -0.730000
						CHANNELS 3 Zrotation Yrotation Xrotation
						JOINT LeftForeArm
						{
							OFFSET 5.450000 0.000000 0.000000
							CHANNELS 3 Zrotation Yrotation Xrotation
							JOINT LeftHand
							{
								OFFSET 3.450000 0.000000 0.000000
								CHANNELS 3 Zrotation Yrotation Xrotation
								JOINT LeftHandIndex1
								{
									OFFSET 0.750000 0.000000 0.000000
									CHANNELS 3 Zrotation Yrotation Xrotation
									End Site
									{
										OFFSET 0.000000 0.000000 0.000000
									}
								}
							}
						}
					}
				}
				JOINT RightShoulder
				{
					OFFSET 0.000000 0.000000 0.000000
					CHANNELS 3 Zrotation Yrotation Xrotation
					JOINT RightArm
					{
						OFFSET -2.700000 1.550000 -0.730000
						CHANNELS 3 Zrotation Yrotation Xrotation
						JOINT RightForeArm
						{
							OFFSET -5.450000 0.000000 0.000000
							CHANNELS 3 Zrotation Yrotation Xrotation
							JOINT RightHand
							{
								OFFSET -3.450000 0.000000 0.000000
								CHANNELS 3 Zrotation Yrotation Xrotation
								JOINT RightHandIndex1
								{
									OFFSET -0.750000 0.000000 0.000000
									CHANNELS 3 Zrotation Yrotation Xrotation
									End Site
									{
										OFFSET 0.000000 0.000000 0.000000
									}
								}
							}
						}
					}
				}
			}
		}
	}
}
MOTION
Frames: 5
Frame Time: 0.016667
-0.009580 16.828820 -3.577880 0.446972 34.003905 -9.960419 -15.083765 14.052722 3.069458 7.970786 -0.192685 -21.585976 -2.627075 6.073053 22.195617 0.245073 3.297953 3.180643 0.810060 0.515390 0.777900 17.797948 -11.849268 3.016444 -12.849926 4.149539 -2.594621 11.980490 -8.072023 23.652759 -0.933935 -4.781334 2.581325 -0.098780 -0.780960 0.140230 -4.666622 -0.437612 -7.990966 33.854561 -1.122667 28.846238 -20.179335 9.876409 -6.145734 11.387253 -4.468882 -17.444287 -0.245567 -11.210783 83.940689 -2.682830 -18.093090 -24.350690 -40.208590 -3.135527 -0.436967 -43.947420 22.587652 -10.587811 -16.699755 -3.332584 -2.039241 -2.277848 2.896713 0.711170 -0.850340 0.686680 0.102190 15.020317 19.313405 13.871376 40.265289 11.024380 -17.798021 -89.243793 30.907876 -37.962487 2.851268 -1.401174 0.454210 -0.153540 -0.500430 -0.021220 
-0.023340 16.775560 -3.604870 1.157763 35.784962 -9.068636 -15.169180 14.123406 3.139113 6.636844 -0.501588 -18.901193 -2.695647 4.866391 15.755933 0.168171 2.620224 3.480698 0.752850 0.445250 0.747080 17.689204 -11.762796 3.033618 -13.574078 4.617683 -3.790138 12.935044 -8.551380 25.159642 -0.930595 -4.933582 2.525960 -0.138560 -0.743980 0.147770 -4.444008 -0.771721 -8.053449 31.173185 -1.037373 29.502060 -18.892756 9.524346 -6.440448 11.426437 -3.473509 -18.032361 1.908548 -13.010321 82.648248 -2.592630 -18.386210 -25.603250 -41.177088 -4.626801 0.142587 -44.009120 22.087399 -10.034933 -14.850335 -2.480976 -1.971217 -2.356742 2.846076 0.722010 -0.833830 0.670030 0.084640 15.993608 20.321952 13.986148 39.970886 11.612882 -18.176998 -92.156971 28.160340 -37.711018 2.854253 -1.407587 0.430390 -0.130070 -0.455970 -0.024520 
-0.039230 16.749240 -3.645080 1.029789 37.049601 -8.482473 -15.240109 14.117896 3.256457 6.140239 -0.631005 -17.818601 -3.067826 4.281742 11.484347 0.163965 2.345923 3.616924 0.715950 0.410070 0.733010 17.627888 -11.619873 3.033922 -13.503100 4.953098 -4.997109 13.534371 -8.765287 26.054546 -0.923914 -4.966792 2.521438 -0.164210 -0.725230 0.139790 -4.237979 -1.086757 -8.129562 29.629077 -1.382456 30.447376 -18.024808 9.255346 -6.657773 11.453658 -2.638770 -18.523467 3.497636 -14.150931 81.148118 -1.983930 -18.371630 -26.268560 -41.585891 -5.898058 0.752918 -44.845489 21.342757 -9.889834 -13.371932 -2.091305 -1.853185 -2.410072 2.812911 0.724160 -0.825320 0.665890 0.080380 16.411870 21.278938 14.115330 39.563143 11.919258 -18.596861 -93.812195 26.903367 -37.893958 2.866604 -1.403651 0.414180 -0.115990 -0.448490 -0.023510 
-0.066900 16.747100 -3.710920 0.694711 37.949230 -8.191239 -15.294121 14.090809 3.322277 5.768545 -0.736687 -18.397356 -3.265769 4.115179 10.172011 0.092157 2.337947 3.640200 0.605970 0.254570 0.692950 17.591075 -11.495809 3.051229 -13.419711 5.353575 -6.229542 14.190479 -8.976401 26.573513 -0.876563 -5.004219 2.509784 -0.231570 -0.666500 0.148610 -4.067016 -1.309778 -8.178862 28.493427 -2.210517 32.727518 -17.385014 8.935667 -6.782496 11.389029 -1.585563 -18.451934 5.064452 -15.193632 77.155094 -1.056120 -18.060890 -27.903250 -40.716091 -6.986137 1.363223 -46.580758 19.439198 -10.038912 -13.236107 -1.378562 -1.934634 -2.550372 2.746622 0.756880 -0.782740 0.611370 0.024890 15.635973 21.946084 13.918344 39.510863 13.318359 -19.140879 -94.796342 25.829903 -38.103846 2.830841 -1.362832 0.343350 -0.103100 -0.362510 -0.065430 
-0.098550 16.757140 -3.777730 0.712066 36.849651 -7.716425 -15.323339 14.099927 3.351160 5.685968 -0.675788 -19.591318 -3.502701 4.220368 10.490109 0.070383 2.381399 3.633694 0.506880 0.118970 0.657250 17.570977 -11.449464 3.038508 -13.163427 5.863687 -7.983481 13.523152 -8.732169 27.499027 -0.802209 -4.912519 2.551608 -0.304880 -0.620130 0.158350 -3.873944 -1.456225 -8.203246 26.794548 -2.533797 36.301119 -16.531810 9.365572 -7.234599 10.797547 -0.723570 -18.354726 5.820723 -15.277565 72.355233 0.271000 -16.946600 -29.011020 -37.917095 -7.692855 2.187048 -50.270681 17.795912 -11.599718 -13.707073 -2.801330 -1.963830 -2.672504 2.745273 0.776810 -0.744350 0.569630 -0.012330 13.953147 22.684062 13.756929 39.690246 15.150391 -19.595254 -96.748522 24.541379 -38.818199 2.815374 -1.348650 0.292110 -0.115320 -0.309150 -0.097680 
